<svg xmlns="http://www.w3.org/2000/svg" width="60" height="60" viewBox="0 0 60 60">
  <g id="ico-timer" transform="translate(-459 -568)">
    <circle id="Эллипс_4" data-name="Эллипс 4" cx="30" cy="30" r="30" transform="translate(459 568)" fill="#e6e6e7"/>
    <g id="timer" transform="translate(472.978 581.976)">
      <circle id="Эллипс_57" data-name="Эллипс 57" cx="6.99" cy="6.99" r="6.99" transform="translate(10.682 11.058)" fill="#aeafb2"/>
      <path id="Контур_1780" data-name="Контур 1780" d="M18.017,30.04a12.023,12.023,0,0,1-5.011-1.093,1,1,0,1,1,.844-1.822A10.017,10.017,0,1,0,9.623,12.561a1.006,1.006,0,1,1-1.683-1.1A12.02,12.02,0,1,1,18.017,30.04Z" transform="translate(0.01 0.007)" fill="#2c3031"/>
      <path id="Контур_1781" data-name="Контур 1781" d="M19.029,2h-2A3.005,3.005,0,0,0,14.02,5.005v2a1,1,0,0,0,1,1h6.01a1,1,0,0,0,1-1v-2A3.005,3.005,0,0,0,19.029,2Zm4.788,11.4a1,1,0,0,0-1.4-.16L19.6,15.483a2.9,2.9,0,0,0-1.573-.461,3.005,3.005,0,1,0,3.005,3.005,2.935,2.935,0,0,0-.18-1l2.8-2.244A1,1,0,0,0,23.817,13.4Zm-12.8,1.623H5.005a1,1,0,1,0,0,2h6.01a1,1,0,1,0,0-2Zm0,4.007H3a1,1,0,0,0,0,2h8.013a1,1,0,0,0,0-2Zm0,4.007H5.005a1,1,0,0,0,0,2h6.01a1,1,0,0,0,0-2Z" fill="#2c3031"/>
    </g>
  </g>
</svg>
