<svg xmlns="http://www.w3.org/2000/svg" width="40" height="40" viewBox="0 0 40 40">
  <g id="ico-configuration" transform="translate(-459 -568)">
    <circle id="Эллипс_4" data-name="Эллипс 4" cx="20" cy="20" r="20" transform="translate(459 568)" fill="#9dedc6"/>
    <g id="verification-account" transform="translate(467.186 576.177)">
      <path id="Контур_520" data-name="Контур 520" d="M13.849,5.925A3.925,3.925,0,1,1,9.925,2a3.925,3.925,0,0,1,3.925,3.925ZM12.174,16.955a.981.981,0,0,1,1.387,0l2.081,2.081,4.163-4.163a.981.981,0,1,1,1.387,1.387l-4.162,4.163a1.962,1.962,0,0,1-2.776,0l-2.081-2.081a.981.981,0,0,1,0-1.387Z" transform="translate(-0.075 0)" fill="#0c0d29"/>
      <path id="Контур_521" data-name="Контур 521" d="M2,16.906A4.906,4.906,0,0,1,6.906,12h5.887a4.907,4.907,0,0,1,4.786,3.825l-2.011,2.012L14.18,16.449a1.962,1.962,0,0,0-2.775,2.776l2.081,2.081a2.911,2.911,0,0,0,.675.505H3.962A1.962,1.962,0,0,1,2,19.849Z" transform="translate(0 -0.189)" fill="#0c0d29"/>
    </g>
  </g>
</svg>
