<svg id="ico-usdt" xmlns="http://www.w3.org/2000/svg" width="24" height="24" viewBox="0 0 24 24">
  <path id="Контур_555" data-name="Контур 555" d="M12,24A12,12,0,1,0,0,12,12,12,0,0,0,12,24Z" fill="#26a17b"/>
  <path id="Контур_556" data-name="Контур 556" d="M52.029,60.931h0c-.082.006-.508.031-1.456.031-.758,0-1.291-.022-1.478-.031v0C46.179,60.8,44,60.3,44,59.688s2.177-1.114,5.093-1.245v1.983c.19.014.737.046,1.491.046.905,0,1.359-.038,1.444-.045V58.445c2.91.13,5.081.637,5.081,1.243S54.939,60.8,52.029,60.931Zm0-2.692V56.464h4.06V53.758H45.034v2.706h4.061v1.774c-3.3.151-5.782.806-5.782,1.588s2.482,1.436,5.782,1.589V67.1h2.935V61.413c3.295-.152,5.77-.8,5.77-1.587S55.324,58.391,52.029,58.238Z" transform="translate(-38.588 -47.893)" fill="#fff" fill-rule="evenodd"/>
</svg>
