<svg xmlns="http://www.w3.org/2000/svg" width="40" height="40" viewBox="0 0 40 40">
  <g id="ico-star" transform="translate(-300 -3210)">
    <circle id="Эллипс_3" data-name="Эллипс 3" cx="20" cy="20" r="20" transform="translate(300 3210)" fill="#dff8ec"/>
    <path id="star" d="M13.391,4.587,15.529,8.87a.829.829,0,0,0,.624.448l4.782.687a.827.827,0,0,1,.67.558.813.813,0,0,1-.21.84l-3.461,3.334a.815.815,0,0,0-.239.726l.817,4.708a.815.815,0,0,1-.33.8.837.837,0,0,1-.873.062l-4.277-2.223a.839.839,0,0,0-.772,0L7.982,21.036a.837.837,0,0,1-.873-.062.815.815,0,0,1-.33-.8L7.6,15.463a.813.813,0,0,0-.239-.726L3.9,11.4a.813.813,0,0,1-.21-.84.827.827,0,0,1,.67-.558l4.782-.687a.829.829,0,0,0,.624-.448L11.9,4.587A.836.836,0,0,1,13.391,4.587Z" transform="translate(307.354 3217.37)" fill="#9dedc6"/>
  </g>
</svg>
