<svg id="ico-ada" xmlns="http://www.w3.org/2000/svg" width="24" height="24" viewBox="0 0 24 24">
  <path id="Контур_557" data-name="Контур 557" d="M12,24A12,12,0,1,0,0,12,12,12,0,0,0,12,24Z" fill="#033ee6"/>
  <g id="Сгруппировать_253" data-name="Сгруппировать 253" transform="translate(3.75 4.5)">
    <path id="Контур_558" data-name="Контур 558" d="M42.421,41.3a.458.458,0,0,1,.608.6.47.47,0,0,1-.747.145.458.458,0,0,1,.14-.742Zm-3.866.409a.359.359,0,1,1-.043.663A.357.357,0,0,1,38.555,41.707Zm7.919.67a.354.354,0,0,1-.068-.675.363.363,0,1,1,.068.675Zm-7.039.949a.555.555,0,1,1-.079.909A.547.547,0,0,1,39.435,43.326Zm5.572.241a.569.569,0,0,1,1.008-.024.562.562,0,1,1-1.008.024Zm-3.052.76a.689.689,0,0,1,.668-.644.734.734,0,0,1,.573.366.644.644,0,0,1-.308.883.891.891,0,0,1-.492.042A.7.7,0,0,1,41.956,44.327Zm-5.75.517a.46.46,0,0,1,.657.522.469.469,0,0,1-.731.237.456.456,0,0,1,.075-.76Zm12.346,0a.456.456,0,1,1,.05.781.451.451,0,0,1-.05-.78Zm-4.98.638a1.127,1.127,0,0,1,1.287.443,1.094,1.094,0,0,1-.38,1.549,1.128,1.128,0,0,1-1.6-.568,1.094,1.094,0,0,1,.69-1.424Zm-2.74.055a1.133,1.133,0,0,1,1.464.481,1.089,1.089,0,0,1-.459,1.475,1.128,1.128,0,0,1-1.524-.473A1.1,1.1,0,0,1,40.833,45.536Zm-2.743.922a.7.7,0,0,1,.671-.564.735.735,0,0,1,.653.643.69.69,0,0,1-.65.665A.648.648,0,0,1,38.09,46.458Zm8.1-.492a.652.652,0,1,1-.049,1.119A.645.645,0,0,1,46.192,45.966ZM39.719,47.7a1.131,1.131,0,0,1,1.262.526,1.085,1.085,0,0,1-.247,1.363A1.132,1.132,0,0,1,39,49.225a1.1,1.1,0,0,1,.717-1.53Zm5.2,0a1.134,1.134,0,0,1,1.264.463,1.088,1.088,0,0,1-.32,1.5,1.135,1.135,0,0,1-1.6-.389A1.1,1.1,0,0,1,44.914,47.694Zm-8.28.544a.554.554,0,1,1-.2.932A.551.551,0,0,1,36.634,48.238Zm11.227.586a.627.627,0,0,1,.591-.656.589.589,0,0,1,.537.574.559.559,0,0,1-.813.485A.747.747,0,0,1,47.861,48.825ZM34.6,48.438a.36.36,0,1,1-.145.547.36.36,0,0,1,.145-.547Zm15.712-.007a.362.362,0,0,1,.527.167.356.356,0,1,1-.527-.167Zm-9.238,1.48a1.1,1.1,0,1,1,.042,2.146,1.093,1.093,0,0,1-.042-2.146Zm2.6,0a1.1,1.1,0,1,1,.086,2.146,1.1,1.1,0,0,1-.9-1.337,1.114,1.114,0,0,1,.816-.81Zm-5.007.409a.654.654,0,0,1,.706.858.664.664,0,0,1-1.114.208A.651.651,0,0,1,38.662,50.319Zm7.616.02a.651.651,0,1,1-.124,1.152A.647.647,0,0,1,46.277,50.339Zm2.128,2.1a.452.452,0,0,1,.465-.631.565.565,0,0,1,.387.233c.022.175.058.383-.089.518A.462.462,0,0,1,48.406,52.439ZM36.2,51.89a.463.463,0,0,1,.688.458.47.47,0,0,1-.709.318A.453.453,0,0,1,36.2,51.89Zm6.145.662a.65.65,0,1,1-.122,1.146A.652.652,0,0,1,42.349,52.552Zm-2.845.653a.556.556,0,0,1,.78.513.547.547,0,0,1-.615.534.618.618,0,0,1-.514-.454.612.612,0,0,1,.349-.592Zm5.765.006a.556.556,0,1,1-.066.922A.551.551,0,0,1,45.268,53.211Zm1,2.438a.387.387,0,0,1,.285-.574c.208.041.428.2.383.431a.37.37,0,0,1-.668.144Zm-7.958-.2c.063-.188.216-.373.44-.324a.357.357,0,0,1,.137.656A.391.391,0,0,1,38.313,55.444Zm3.84.215a.458.458,0,0,1,.666-.265c.159.068.206.242.246.39q-.032.116-.06.232a.525.525,0,0,1-.388.225.452.452,0,0,1-.464-.583Z" transform="translate(-34.378 -41.253)"/>
  </g>
  <path id="Контур_559" data-name="Контур 559" d="M42.421,41.3a.458.458,0,0,1,.608.6.47.47,0,0,1-.747.145.458.458,0,0,1,.14-.742Zm-3.866.409a.359.359,0,1,1-.043.663A.357.357,0,0,1,38.555,41.707Zm7.919.67a.354.354,0,0,1-.068-.675.363.363,0,1,1,.068.675Zm-7.039.949a.555.555,0,1,1-.079.909A.547.547,0,0,1,39.435,43.326Zm5.572.241a.569.569,0,0,1,1.008-.024.562.562,0,1,1-1.008.024Zm-3.052.76a.689.689,0,0,1,.668-.644.734.734,0,0,1,.573.366.644.644,0,0,1-.308.883.891.891,0,0,1-.492.042A.7.7,0,0,1,41.956,44.327Zm-5.75.517a.46.46,0,0,1,.657.522.469.469,0,0,1-.731.237.456.456,0,0,1,.075-.76Zm12.346,0a.456.456,0,1,1,.05.781.451.451,0,0,1-.05-.78Zm-4.98.638a1.127,1.127,0,0,1,1.287.443,1.094,1.094,0,0,1-.38,1.549,1.128,1.128,0,0,1-1.6-.568,1.094,1.094,0,0,1,.69-1.424Zm-2.74.055a1.133,1.133,0,0,1,1.464.481,1.089,1.089,0,0,1-.459,1.475,1.128,1.128,0,0,1-1.524-.473A1.1,1.1,0,0,1,40.833,45.536Zm-2.743.922a.7.7,0,0,1,.671-.564.735.735,0,0,1,.653.643.69.69,0,0,1-.65.665A.648.648,0,0,1,38.09,46.458Zm8.1-.492a.652.652,0,1,1-.049,1.119A.645.645,0,0,1,46.192,45.966ZM39.719,47.7a1.131,1.131,0,0,1,1.262.526,1.085,1.085,0,0,1-.247,1.363A1.132,1.132,0,0,1,39,49.225a1.1,1.1,0,0,1,.717-1.53Zm5.2,0a1.134,1.134,0,0,1,1.264.463,1.088,1.088,0,0,1-.32,1.5,1.135,1.135,0,0,1-1.6-.389A1.1,1.1,0,0,1,44.914,47.694Zm-8.28.544a.554.554,0,1,1-.2.932A.551.551,0,0,1,36.634,48.238Zm11.227.586a.627.627,0,0,1,.591-.656.589.589,0,0,1,.537.574.559.559,0,0,1-.813.485A.747.747,0,0,1,47.861,48.825ZM34.6,48.438a.36.36,0,1,1-.145.547.36.36,0,0,1,.145-.547Zm15.712-.007a.362.362,0,0,1,.527.167.356.356,0,1,1-.527-.167Zm-9.238,1.48a1.1,1.1,0,1,1,.042,2.146,1.093,1.093,0,0,1-.042-2.146Zm2.6,0a1.1,1.1,0,1,1,.086,2.146,1.1,1.1,0,0,1-.9-1.337,1.114,1.114,0,0,1,.816-.81Zm-5.007.409a.654.654,0,0,1,.706.858.664.664,0,0,1-1.114.208A.651.651,0,0,1,38.662,50.319Zm7.616.02a.651.651,0,1,1-.124,1.152A.647.647,0,0,1,46.277,50.339Zm2.128,2.1a.452.452,0,0,1,.465-.631.565.565,0,0,1,.387.233c.022.175.058.383-.089.518A.462.462,0,0,1,48.406,52.439ZM36.2,51.89a.463.463,0,0,1,.688.458.47.47,0,0,1-.709.318A.453.453,0,0,1,36.2,51.89Zm6.145.662a.65.65,0,1,1-.122,1.146A.652.652,0,0,1,42.349,52.552Zm-2.845.653a.556.556,0,0,1,.78.513.547.547,0,0,1-.615.534.618.618,0,0,1-.514-.454.612.612,0,0,1,.349-.592Zm5.765.006a.556.556,0,1,1-.066.922A.551.551,0,0,1,45.268,53.211Zm1,2.438a.387.387,0,0,1,.285-.574c.208.041.428.2.383.431a.37.37,0,0,1-.668.144Zm-7.958-.2c.063-.188.216-.373.44-.324a.357.357,0,0,1,.137.656A.391.391,0,0,1,38.313,55.444Zm3.84.215a.458.458,0,0,1,.666-.265c.159.068.206.242.246.39q-.032.116-.06.232a.525.525,0,0,1-.388.225.452.452,0,0,1-.464-.583Z" transform="translate(-30.628 -36.753)" fill="#fff"/>
</svg>
