<svg id="ico-xrp" xmlns="http://www.w3.org/2000/svg" width="24" height="24" viewBox="0 0 24 24">
  <path id="Контур_538" data-name="Контур 538" d="M12,24A12,12,0,1,0,0,12,12,12,0,0,0,12,24Z" fill="#23292f"/>
  <path id="Контур_539" data-name="Контур 539" d="M54.042,55h2.166L51.7,59.474a4.206,4.206,0,0,1-5.913,0L41.276,55h2.169l3.425,3.4a2.661,2.661,0,0,0,3.744,0ZM43.419,67.439H41.25l4.537-4.5a4.205,4.205,0,0,1,5.913,0l4.537,4.5H54.068l-3.451-3.426a2.661,2.661,0,0,0-3.744,0l-3.455,3.427Z" transform="translate(-36.744 -49.009)" fill="#fff"/>
</svg>
