<svg xmlns="http://www.w3.org/2000/svg" width="40" height="40" viewBox="0 0 40 40">
  <g id="ico-access" transform="translate(-459 -568)">
    <circle id="Эллипс_4" data-name="Эллипс 4" cx="20" cy="20" r="20" transform="translate(459 568)" fill="#9dedc6"/>
    <path id="online-stock" d="M93.487,126.514V114.736a.934.934,0,0,0-.258-.678.907.907,0,0,0-.639-.258H75.683a1.533,1.533,0,0,0-.314.022.885.885,0,0,0-.658.615,1.164,1.164,0,0,0-.034.344v11.832a1.3,1.3,0,0,0,.213.927,1.051,1.051,0,0,0,.9.31h6.289v2H80.5a.538.538,0,1,0,0,1.075h7.158a.538.538,0,1,0,0-1.075H86.083v-2h6.511a.89.89,0,0,0,.875-.708A4.078,4.078,0,0,0,93.487,126.514Zm-10.26-6.756H81.091V123.6a.538.538,0,1,1-1.075,0v-3.842H77.879a.309.309,0,0,1-.148-.037h0a.008.008,0,0,0,0,0,.37.37,0,0,1-.075-.054.324.324,0,0,1-.088-.172.234.234,0,0,1-.006-.056.292.292,0,0,1,.054-.179s0,0,0-.006a.229.229,0,0,1,.037-.043l.331-.331q.72-.72,1.439-1.441l.9-.9a.329.329,0,0,1,.456,0c.11.11.219.222.331.331q.72.72,1.441,1.439l.9.9A.326.326,0,0,1,83.227,119.758Zm7.367,2.687c-.11.11-.219.222-.331.331q-.719.719-1.439,1.441l-.9.9a.329.329,0,0,1-.456,0c-.11-.11-.222-.219-.331-.331q-.719-.719-1.439-1.441l-.9-.9a.32.32,0,0,1-.09-.187.264.264,0,0,1,0-.041.286.286,0,0,1,.054-.176l.006-.009a.228.228,0,0,1,.037-.043.308.308,0,0,1,.12-.075h0a.3.3,0,0,1,.105-.019h2.136v-3.842a.538.538,0,1,1,1.075,0v3.842h2.136A.326.326,0,0,1,90.594,122.445Z" transform="translate(394.917 465.636)" fill="#0c0d29"/>
  </g>
</svg>
