<svg xmlns="http://www.w3.org/2000/svg" xmlns:xlink="http://www.w3.org/1999/xlink" width="24" height="24" viewBox="0 0 24 24">
  <defs>
    <clipPath id="clip-path">
      <rect id="Прямоугольник_446" data-name="Прямоугольник 446" width="24" height="24" fill="#fff"/>
    </clipPath>
  </defs>
  <g id="ico-btc" clip-path="url(#clip-path)">
    <path id="Контур_534" data-name="Контур 534" d="M24.217,12.108A12.108,12.108,0,1,1,20.67,3.546,12.109,12.109,0,0,1,24.217,12.108Z" transform="translate(0 0)" fill="#f7931a"/>
    <path id="Контур_535" data-name="Контур 535" d="M56.564,37.513l2.783.745.622-2.318,1.391.378-.6,2.222,1.135.3.6-2.247,1.416.379-.61,2.259s2.312.512,2.855,2.392a2.314,2.314,0,0,1-1.733,2.9,2.831,2.831,0,0,1,1.33,3.3c-.7,2.185-2.831,2.576-5.078,2.075l-.61,2.342-1.416-.379.622-2.306-1.123-.306-.622,2.323-1.4-.378.623-2.312-2.856-.771.72-1.6s.806.22,1.111.293.5-.244.587-.561,1.379-5.571,1.5-6,.073-.771-.44-.9S56.158,39,56.158,39Zm2.807,6.958L58.6,47.535s3.821,1.379,4.309-.561S59.371,44.471,59.371,44.471Zm.354-1.453.756-2.807s3.271.586,2.869,2.148S61.019,43.322,59.725,43.018Z" transform="translate(-47.958 -31.984)" fill="#fff" fill-rule="evenodd"/>
  </g>
</svg>
