<svg xmlns="http://www.w3.org/2000/svg" width="40" height="40" viewBox="0 0 40 40">
  <g id="ico-security" transform="translate(-515 -767)">
    <circle id="Эллипс_4" data-name="Эллипс 4" cx="20" cy="20" r="20" transform="translate(515 767)" fill="#fcf2b9"/>
    <path id="Контур_259" data-name="Контур 259" d="M5.462,5.774h.8A11.094,11.094,0,0,0,12.417,3.91L13.783,3l1.366.91A11.094,11.094,0,0,0,21.3,5.774h.8a.462.462,0,0,1,.462.462v4.858a11.094,11.094,0,0,1-5.927,9.818l-2.856,1.5-2.856-1.5A11.094,11.094,0,0,1,5,11.094V6.236A.462.462,0,0,1,5.462,5.774Z" transform="translate(521.217 774.292)" fill="#f6d25d"/>
  </g>
</svg>
