<svg xmlns="http://www.w3.org/2000/svg" width="40" height="40" viewBox="0 0 40 40">
  <g id="ico-security-support" transform="translate(-1006 -730)">
    <circle id="Эллипс_5" data-name="Эллипс 5" cx="20" cy="20" r="20" transform="translate(1006 730)" fill="#dff8ec"/>
    <g id="Layer_13" data-name="Layer 13" transform="translate(1005.254 735.332)">
      <path id="Контур_266" data-name="Контур 266" d="M29.164,6.37H12.124A1.033,1.033,0,0,0,11.08,7.405V19.788a1.046,1.046,0,0,0,1.044,1.048h4.27a.962.962,0,0,1,.516.133l3.212,1.858a1.054,1.054,0,0,0,1.044,0l2.921-1.7.278-.159a1.028,1.028,0,0,1,.516-.133h4.283a1.033,1.033,0,0,0,1.031-1.048V7.405A1.033,1.033,0,0,0,29.164,6.37Zm-3.04,7.963a.861.861,0,0,1-.859.863h-.172a4.589,4.589,0,0,1-.5,1.208l.119.119a.865.865,0,0,1,0,1.208l-.4.4a.857.857,0,0,1-1.2,0l-.119-.119a4.551,4.551,0,0,1-1.2.5v.173a.861.861,0,0,1-.859.863H20.36a.861.861,0,0,1-.859-.863v-.173a4.551,4.551,0,0,1-1.2-.5l-.119.119a.857.857,0,0,1-1.2,0l-.4-.4a.865.865,0,0,1,0-1.208L16.7,16.4a4.589,4.589,0,0,1-.5-1.208h-.172a.861.861,0,0,1-.859-.863v-.571a.861.861,0,0,1,.859-.863H16.2a4.589,4.589,0,0,1,.5-1.208l-.119-.119a.865.865,0,0,1,0-1.208l.4-.4a.857.857,0,0,1,1.2,0l.119.119a4.551,4.551,0,0,1,1.2-.5V9.356a.861.861,0,0,1,.859-.823h.568a.861.861,0,0,1,.859.863v.173a4.551,4.551,0,0,1,1.2.5l.119-.212a.857.857,0,0,1,1.2,0l.4.4a.865.865,0,0,1,0,1.208l-.119.119a4.589,4.589,0,0,1,.5,1.208h.172a.861.861,0,0,1,.859.863Z" transform="translate(0.108 0)" fill="#9dedc6"/>
      <circle id="Эллипс_19" data-name="Эллипс 19" cx="1.972" cy="1.972" r="1.972" transform="translate(18.774 11.984)" fill="#9dedc6"/>
    </g>
  </g>
</svg>
