<svg xmlns="http://www.w3.org/2000/svg" width="26" height="23.663" viewBox="0 0 26 23.663">
  <path id="ico-dc-balance" d="M26.911,15.743l-.237-.828L24.19,8.407a3.24,3.24,0,0,0,1.656-2.958,1.183,1.183,0,0,0-2.366,0A1.118,1.118,0,0,1,22.3,6.633a1.243,1.243,0,0,1-1.065-.592,3.531,3.531,0,0,0-3.076-1.775H15.2V3.083a1.183,1.183,0,1,0-2.366,0V4.266H9.874A3.306,3.306,0,0,0,6.8,6.041a1.2,1.2,0,0,1-1.656.473,1.243,1.243,0,0,1-.592-1.065A1.118,1.118,0,0,0,3.366,4.266,1.118,1.118,0,0,0,2.183,5.449,3.373,3.373,0,0,0,3.84,8.407L1.118,15.625A.894.894,0,0,0,1,16.1a4.733,4.733,0,0,0,9.465,0,.894.894,0,0,0-.118-.473L7.626,8.407a3.148,3.148,0,0,0,1.183-1.3,1.076,1.076,0,0,1,.947-.473h3.076V23.2H9.282a1.183,1.183,0,1,0,0,2.366h9.465a1.183,1.183,0,1,0,0-2.366H15.2V6.633h2.958a1.076,1.076,0,0,1,.947.473,4.093,4.093,0,0,0,1.183,1.3l-2.721,7.217c0,.118-.118.355-.118.473A4.6,4.6,0,0,0,22.3,20.712a4.6,4.6,0,0,0,4.614-4.5C27.03,16.1,27.03,15.98,26.911,15.743ZM3.84,14.915l1.893-4.851,1.893,4.851Zm16.564,0L22.3,10.064l1.893,4.851Z" transform="translate(-1 -1.9)" fill="#2c3031"/>
</svg>
