<svg xmlns="http://www.w3.org/2000/svg" width="40" height="40" viewBox="0 0 40 40">
  <g id="ico-support" transform="translate(-459 -568)">
    <circle id="Эллипс_4" data-name="Эллипс 4" cx="20" cy="20" r="20" transform="translate(459 568)" fill="#9dedc6"/>
    <g id="rank-search" transform="translate(456.84 578.594)">
      <path id="Контур_519" data-name="Контур 519" d="M38.362,7.974a.757.757,0,0,0-.439-1.37H31.534L29.6.533a.757.757,0,0,0-1.438,0L26.183,6.588H19.756a.757.757,0,0,0-.447,1.37l5.162,3.785L22.5,17.8a.772.772,0,0,0,1.188.848l5.162-3.785,5.162,3.785a.757.757,0,0,0,1.173-.848l-1.976-6.056Z" transform="translate(-6.676)" fill="#0c0d29"/>
    </g>
  </g>
</svg>
