<svg xmlns="http://www.w3.org/2000/svg" width="40" height="40" viewBox="0 0 40 40">
  <g id="ico-risk" transform="translate(-459 -568)">
    <circle id="Эллипс_4" data-name="Эллипс 4" cx="20" cy="20" r="20" transform="translate(459 568)" fill="#e6e6e7"/>
    <g id="box-graph" transform="translate(467.805 576.718)">
      <path id="Контур_522" data-name="Контур 522" d="M19.9,19.238H3.326V2.663A.626.626,0,0,0,2.663,2,.626.626,0,0,0,2,2.663V19.9a.626.626,0,0,0,.663.663H19.9a.663.663,0,0,0,0-1.326Z" transform="translate(0 0)" fill="#2c3031"/>
      <path id="Контур_523" data-name="Контур 523" d="M7.989,17.26a.626.626,0,0,0,.663-.663V15.271h.663a.626.626,0,0,0,.663-.663V6.652a.626.626,0,0,0-.663-.663H8.652V4.663a.663.663,0,1,0-1.326,0V5.989H6.663A.626.626,0,0,0,6,6.652v7.956a.626.626,0,0,0,.663.663h.663V16.6A.626.626,0,0,0,7.989,17.26ZM13.293,4a.626.626,0,0,0-.663.663V5.989h-.663a.626.626,0,0,0-.663.663v5.3a.626.626,0,0,0,.663.663h2.652a.626.626,0,0,0,.663-.663v-5.3a.626.626,0,0,0-.663-.663h-.663V4.663A.626.626,0,0,0,13.293,4Zm5.3,0a.626.626,0,0,0-.663.663v6.63h-.663a.626.626,0,0,0-.663.663V16.6a.626.626,0,0,0,.663.663h2.652a.626.626,0,0,0,.663-.663V11.956a.626.626,0,0,0-.663-.663H19.26V4.663A.626.626,0,0,0,18.6,4Z" transform="translate(-1.348 -0.674)" fill="#2c3031"/>
    </g>
  </g>
</svg>
