<svg xmlns="http://www.w3.org/2000/svg" width="60" height="60" viewBox="0 0 60 60">
  <g id="ico-dc-check" transform="translate(-459 -568)">
    <circle id="Эллипс_4" data-name="Эллипс 4" cx="30" cy="30" r="30" transform="translate(459 568)" fill="#e6e6e7"/>
    <g id="ico-dc-check-2" data-name="ico-dc-check" transform="translate(469 578)">
      <path id="Контур_1773" data-name="Контур 1773" d="M34.68,17H32.6V30.52a2.086,2.086,0,0,1-2.08,2.08H17v2.08a2.086,2.086,0,0,0,2.08,2.08h15.6a2.086,2.086,0,0,0,2.08-2.08V19.08A2.086,2.086,0,0,0,34.68,17Z" transform="translate(-4.8 -4.8)" fill="#7d7e90"/>
      <path id="Контур_1774" data-name="Контур 1774" d="M26.68,9a2.086,2.086,0,0,1,2.08,2.08v15.6a2.086,2.086,0,0,1-2.08,2.08H11.08A2.086,2.086,0,0,1,9,26.68V11.08A2.086,2.086,0,0,1,11.08,9H22" transform="translate(-0.96 -0.96)" fill="#aeafb2"/>
      <path id="Контур_1775" data-name="Контур 1775" d="M29.88,11.16H28.84V10.12A3.129,3.129,0,0,0,25.72,7a1.04,1.04,0,0,0,0,2.08,1.043,1.043,0,0,1,1.04,1.04v15.6a1.043,1.043,0,0,1-1.04,1.04H10.12a1.043,1.043,0,0,1-1.04-1.04V10.12a1.043,1.043,0,0,1,1.04-1.04H21.04a1.04,1.04,0,0,0,0-2.08H10.12A3.129,3.129,0,0,0,7,10.12v15.6a3.129,3.129,0,0,0,3.12,3.12h1.04v1.04A3.129,3.129,0,0,0,14.28,33h15.6A3.129,3.129,0,0,0,33,29.88V14.28A3.129,3.129,0,0,0,29.88,11.16Zm1.04,18.72a1.043,1.043,0,0,1-1.04,1.04H14.28a1.043,1.043,0,0,1-1.04-1.04V28.84H25.72a3.129,3.129,0,0,0,3.12-3.12V13.24h1.04a1.043,1.043,0,0,1,1.04,1.04Z" fill="#2c3031"/>
      <path id="Контур_1776" data-name="Контур 1776" d="M26.644,22.259l-3.952,3.484-1.924-1.924a1.03,1.03,0,0,0-1.456,1.456l2.6,2.6a.908.908,0,0,0,.728.364,1.1,1.1,0,0,0,.676-.26L28,23.819a1.055,1.055,0,0,0,.1-1.456A1.008,1.008,0,0,0,26.644,22.259Z" transform="translate(-5.76 -7.199)" fill="#2c3031"/>
    </g>
  </g>
</svg>
