<svg id="ico-doge" xmlns="http://www.w3.org/2000/svg" width="24" height="24" viewBox="0 0 24 24">
  <path id="Контур_544" data-name="Контур 544" d="M12,24A12,12,0,1,0,0,12,12,12,0,0,0,12,24Z" fill="#c3a634"/>
  <path id="Контур_545" data-name="Контур 545" d="M65.061,59.958H68.3v1.714H65.061v3.614H67.1a5.106,5.106,0,0,0,1.983-.328A2.9,2.9,0,0,0,70.3,64.05a3.3,3.3,0,0,0,.6-1.361,9.134,9.134,0,0,0,0-3.378,3.3,3.3,0,0,0-.6-1.361,2.9,2.9,0,0,0-1.211-.908,5.107,5.107,0,0,0-1.983-.328H65.061v3.244Zm-2.074,1.714H61.875V59.958h1.112V55H67.9a5.481,5.481,0,0,1,2.356.47,4.392,4.392,0,0,1,1.626,1.286,5.525,5.525,0,0,1,.938,1.907,9.039,9.039,0,0,1,0,4.673,5.507,5.507,0,0,1-.937,1.907,4.384,4.384,0,0,1-1.625,1.286A5.472,5.472,0,0,1,67.9,67H62.987Z" transform="translate(-55.125 -49)" fill="#fff" fill-rule="evenodd"/>
</svg>
