<svg xmlns="http://www.w3.org/2000/svg" width="40" height="40" viewBox="0 0 40 40">
  <g id="ico-emulation" transform="translate(-459 -568)">
    <circle id="Эллипс_4" data-name="Эллипс 4" cx="20" cy="20" r="20" transform="translate(459 568)" fill="#e6e6e7"/>
    <g id="seo-click" transform="translate(469.174 576.091)">
      <path id="Контур_199" data-name="Контур 199" d="M4.826,4A2.918,2.918,0,0,0,2,7v8.4a2.918,2.918,0,0,0,2.826,3H9.913a.6.6,0,0,0,0-1.2H4.826a1.751,1.751,0,0,1-1.7-1.8V8.8H16.7v3a.566.566,0,1,0,1.13,0V7A2.918,2.918,0,0,0,15,4Zm0,3a.6.6,0,1,0-.565-.6A.584.584,0,0,0,4.826,7Zm1.7,0a.6.6,0,1,0-.565-.6A.584.584,0,0,0,6.522,7Zm2.261-.6a.566.566,0,1,1-.565-.6A.584.584,0,0,1,8.783,6.4Z" transform="translate(0)" fill="#2c3031" fill-rule="evenodd"/>
      <path id="Контур_200" data-name="Контур 200" d="M18.3,14a.53.53,0,0,1,.53.53v1.061a.53.53,0,1,1-1.061,0V14.53A.53.53,0,0,1,18.3,14Zm-3.117.686a.53.53,0,1,0-.75.75l.75.75a.53.53,0,1,0,.75-.75ZM13.53,17.712a.53.53,0,1,0,0,1.061h1.061a.53.53,0,0,0,0-1.061Zm2.8,1.1A1.591,1.591,0,0,1,18.338,16.8l2.711.889a1.591,1.591,0,0,1,.317,2.879l-.679.4a.531.531,0,0,0-.186.185l-.4.679a1.591,1.591,0,0,1-2.879-.317l-.889-2.711Z" transform="translate(-4.318 -2.796)" fill="#2c3031" fill-rule="evenodd"/>
    </g>
  </g>
</svg>
