<svg xmlns="http://www.w3.org/2000/svg" width="68" height="23.997" viewBox="0 0 68 23.997">
  <path id="ico-zalo" d="M35.728,7.694V6.413h3.816V24.429H37.361A1.637,1.637,0,0,1,35.728,22.8h0A9.335,9.335,0,1,1,30.238,5.892a9.238,9.238,0,0,1,5.488,1.8h0ZM19.943.62V1.2a4.886,4.886,0,0,1-.849,3.022l-.085.1c-.154.175-.514.587-.686.81L6.075,20.6H19.943v2.189a1.638,1.638,0,0,1-1.634,1.642H.34V23.4a3.729,3.729,0,0,1,.707-2.416L14.1,4.725H.884V.62H19.943ZM44.172,24.429a1.366,1.366,0,0,1-1.361-1.367V.62H46.9V24.429H44.172Zm14.8-18.65A9.419,9.419,0,1,1,49.6,15.2a9.395,9.395,0,0,1,9.369-9.417ZM30.238,20.749a5.5,5.5,0,1,0-5.475-5.5A5.489,5.489,0,0,0,30.238,20.749Zm28.733-.009A5.542,5.542,0,1,0,53.46,15.2,5.528,5.528,0,0,0,58.971,20.74Z" transform="translate(-0.34 -0.62)" fill="#7d7e90" fill-rule="evenodd"/>
</svg>
