<svg id="ico-eth" xmlns="http://www.w3.org/2000/svg" width="24" height="24" viewBox="0 0 24 24">
  <path id="Контур_548" data-name="Контур 548" d="M12,24A12,12,0,1,0,0,12,12,12,0,0,0,12,24Z" fill="#627eea"/>
  <path id="Контур_549" data-name="Контур 549" d="M113.424,27.5v6.653l5.623,2.512Z" transform="translate(-101.05 -24.5)" fill="rgba(255,255,255,0.6)"/>
  <path id="Контур_550" data-name="Контур 550" d="M67.5,27.5l-5.624,9.165L67.5,34.153Z" transform="translate(-55.125 -24.5)" fill="#fff"/>
  <path id="Контур_551" data-name="Контур 551" d="M113.424,124.375v4.52l5.626-7.784Z" transform="translate(-101.05 -107.899)" fill="rgba(255,255,255,0.6)"/>
  <path id="Контур_552" data-name="Контур 552" d="M67.5,128.9v-4.521l-5.624-3.263Z" transform="translate(-55.125 -107.899)" fill="#fff"/>
  <path id="Контур_553" data-name="Контур 553" d="M113.424,94.271l5.623-3.265L113.424,88.5Z" transform="translate(-101.05 -78.842)" fill="rgba(255,255,255,0.2)"/>
  <path id="Контур_554" data-name="Контур 554" d="M61.875,91.007,67.5,94.271V88.5Z" transform="translate(-55.125 -78.842)" fill="rgba(255,255,255,0.6)"/>
</svg>
