<svg xmlns="http://www.w3.org/2000/svg" width="40" height="40" viewBox="0 0 40 40">
  <g id="ico-security-data" transform="translate(-1006 -1296)">
    <circle id="Эллипс_8" data-name="Эллипс 8" cx="20" cy="20" r="20" transform="translate(1006 1296)" fill="#dff8ec"/>
    <path id="lock" d="M31.122,15.678v-3.17a5.225,5.225,0,1,0-10.444,0v3.17A2.114,2.114,0,0,0,18.9,17.8v7.156A2.1,2.1,0,0,0,20.971,27.1h9.859A2.1,2.1,0,0,0,32.9,24.955V17.8A2.135,2.135,0,0,0,31.122,15.678ZM25.9,9.408a3.071,3.071,0,0,1,3.016,3.124v3.124H22.884V12.531A3.071,3.071,0,0,1,25.9,9.408Z" transform="translate(1000.1 1298.9)" fill="#9dedc6"/>
  </g>
</svg>
