<svg xmlns="http://www.w3.org/2000/svg" width="40" height="40" viewBox="0 0 40 40">
  <g id="ico-care" transform="translate(-515 -767)">
    <circle id="Эллипс_4" data-name="Эллипс 4" cx="20" cy="20" r="20" transform="translate(515 767)" fill="#fcf2b9"/>
    <path id="support-3" d="M158.2,79.6v6.375a3.613,3.613,0,0,1-3.609,3.609h-2.146a1.542,1.542,0,0,1-1.478,1.11h-1.322a1.537,1.537,0,1,1,0-3.075h1.322a1.541,1.541,0,0,1,1.478,1.1h2.146a2.747,2.747,0,0,0,2.744-2.744v-.415a1.008,1.008,0,0,1-.283.039l-2.212,0a1.043,1.043,0,0,1-1.041-1.041V79.677a1.043,1.043,0,0,1,1.041-1.041l2.212,0a1.061,1.061,0,0,1,.221.024,7.135,7.135,0,0,0-14.143-.017.943.943,0,0,1,.11-.007h2.436a1.043,1.043,0,0,1,1.041,1.041v4.882a1.043,1.043,0,0,1-1.041,1.041h-2.436a1.043,1.043,0,0,1-1.041-1.041V79.675c0-.026,0-.05,0-.076h0a7.892,7.892,0,0,1,.632-3.107,8.076,8.076,0,0,1,4.261-4.261,7.961,7.961,0,0,1,6.217,0,8.076,8.076,0,0,1,4.261,4.261A7.892,7.892,0,0,1,158.2,79.6Z" transform="translate(384.799 705.853)" fill="#f6d25d"/>
  </g>
</svg>
