<svg id="ico-etc" xmlns="http://www.w3.org/2000/svg" width="24" height="24" viewBox="0 0 24 24">
  <path id="Контур_562" data-name="Контур 562" d="M12,24A12,12,0,1,0,0,12,12,12,0,0,0,12,24Z" fill="#328332"/>
  <path id="Контур_563" data-name="Контур 563" d="M67.117,36.915l-5.041-.433,5.04-2.852v3.284Zm0,3.345v5.205c-1.753-2.728-3.685-5.732-5.242-8.162,1.838,1.035,3.756,2.117,5.242,2.958Zm0-7.551-5.242,2.925L67.117,27.5Z" transform="translate(-55.125 -24.5)" fill="#fff"/>
  <path id="Контур_564" data-name="Контур 564" d="M114.966,36.482l-5.041.433V33.63l5.04,2.852Zm-5.041,3.778c1.485-.84,3.4-1.923,5.241-2.958-1.557,2.432-3.489,5.435-5.241,8.162Zm0-7.552V27.5l5.241,8.134Z" transform="translate(-97.933 -24.5)" fill="rgba(255,255,255,0.6)"/>
  <path id="Контур_565" data-name="Контур 565" d="M109.925,110.268l5.04-.433-5.04,2.831Z" transform="translate(-97.933 -97.853)" fill="#fff" fill-rule="evenodd" opacity="0.2"/>
  <path id="Контур_566" data-name="Контур 566" d="M68.751,110.268l-5.041-.433,5.041,2.831Z" transform="translate(-56.76 -97.853)" fill="#fff" fill-rule="evenodd" opacity="0.603"/>
</svg>
