<svg xmlns="http://www.w3.org/2000/svg" width="16" height="18" viewBox="0 0 16 18">
  <g id="ico-arrows" transform="translate(-4714 -909.499)">
    <g id="Сгруппировать_583" data-name="Сгруппировать 583">
      <path id="Icon_ionic-ios-arrow-round-back" data-name="Icon ionic-ios-arrow-round-back" d="M12.721,11.431a.659.659,0,0,1,0,.9L9.909,15.292H20.64a.634.634,0,0,1,0,1.266H9.909l2.821,2.965a.664.664,0,0,1,0,.9.581.581,0,0,1-.849,0L8.054,16.373h0a.715.715,0,0,1-.125-.2.63.63,0,0,1-.046-.243.651.651,0,0,1,.172-.443l3.823-4.041A.572.572,0,0,1,12.721,11.431Z" transform="translate(4706.118 898.247)" fill="#f2f4f3"/>
      <path id="Icon_ionic-ios-arrow-round-back-2" data-name="Icon ionic-ios-arrow-round-back" d="M4.839.179a.659.659,0,0,1,0,.9L2.027,4.04H12.758a.634.634,0,0,1,0,1.266H2.027L4.848,8.272a.664.664,0,0,1,0,.9.581.581,0,0,1-.849,0L.172,5.121h0a.715.715,0,0,1-.125-.2A.63.63,0,0,1,0,4.678a.651.651,0,0,1,.172-.443L3.994.194A.572.572,0,0,1,4.839.179Z" transform="translate(4730 927.499) rotate(180)" fill="#f2f4f3"/>
    </g>
  </g>
</svg>
