<svg id="ico-inst" xmlns="http://www.w3.org/2000/svg" width="24" height="24" viewBox="0 0 24 24">
  <path id="Контур_196" data-name="Контур 196" d="M5.414,1.172a3,3,0,1,1-4.243,0,3,3,0,0,1,4.243,0" transform="translate(8.707 8.707)" fill="#7d7e90"/>
  <path id="Контур_197" data-name="Контур 197" d="M17.25,0H6.75A6.757,6.757,0,0,0,0,6.75v10.5A6.757,6.757,0,0,0,6.75,24h10.5A6.757,6.757,0,0,0,24,17.25V6.75A6.757,6.757,0,0,0,17.25,0ZM12,18a6,6,0,1,1,6-6A6.006,6.006,0,0,1,12,18ZM18.75,6a.75.75,0,1,1,.75-.75A.75.75,0,0,1,18.75,6Z" fill="#7d7e90"/>
</svg>
