<svg id="ico-dot" xmlns="http://www.w3.org/2000/svg" width="24" height="24" viewBox="0 0 24 24">
  <path id="Контур_546" data-name="Контур 546" d="M12,24A12,12,0,1,0,0,12,12,12,0,0,0,12,24Z" fill="#e6007a"/>
  <path id="Контур_547" data-name="Контур 547" d="M70.612,45.547A5.056,5.056,0,0,0,65.56,50.6a5.281,5.281,0,0,0,.267,1.644.706.706,0,0,0,1.336-.454,3.558,3.558,0,0,1-.2-1.3,3.651,3.651,0,1,1,3.863,3.743s-.709.04-1.056.094c-.174.026-.307.053-.4.067a.054.054,0,0,1-.067-.068l.121-.587.655-3.021a.7.7,0,0,0-1.363-.294s-1.577,7.351-1.591,7.432a.7.7,0,0,0,1.364.294c.013-.08.227-1.056.227-1.056a1.775,1.775,0,0,1,1.5-1.39q.393-.043.788-.067a5.053,5.053,0,0,0-.388-10.091Zm.361,11.629a.85.85,0,1,0,.656,1A.843.843,0,0,0,70.973,57.176Z" transform="translate(-58.408 -40.578)" fill="#fff"/>
</svg>
