<svg xmlns="http://www.w3.org/2000/svg" width="60" height="60" viewBox="0 0 60 60">
  <g id="ico-acc" transform="translate(-459 -568)">
    <circle id="Эллипс_4" data-name="Эллипс 4" cx="30" cy="30" r="30" transform="translate(459 568)" fill="#e6e6e7"/>
    <path id="account" d="M15.694,16a6.923,6.923,0,0,0,6.982-7A6.982,6.982,0,1,0,8.712,9,6.923,6.923,0,0,0,15.694,16ZM28.681,28.32a13.426,13.426,0,0,0-16.2-9.8,13.611,13.611,0,0,0-9.775,9.8A1.417,1.417,0,0,0,3.825,30h23.46a1.321,1.321,0,0,0,1.4-1.4Z" transform="translate(473.319 582)" fill="#2c3031"/>
  </g>
</svg>
