<svg xmlns="http://www.w3.org/2000/svg" xmlns:xlink="http://www.w3.org/1999/xlink" width="24" height="24" viewBox="0 0 24 24">
  <defs>
    <clipPath id="clip-path">
      <rect id="Прямоугольник_447" data-name="Прямоугольник 447" width="24" height="24" fill="#fff"/>
    </clipPath>
  </defs>
  <g id="ico-ltc" clip-path="url(#clip-path)">
    <path id="Контур_567" data-name="Контур 567" d="M12.552,0a11.967,11.967,0,1,0,.07,0Z" transform="translate(-0.552)" fill="#345d9d"/>
    <path id="Контур_568" data-name="Контур 568" d="M73.014,52.545,71.957,56.1h5.625a.266.266,0,0,1,.109.017.289.289,0,0,1,.094.058.293.293,0,0,1,.064.091.267.267,0,0,1,.026.109v.093l-.49,1.688a.355.355,0,0,1-.136.2.362.362,0,0,1-.23.07H68.411l1.442-4.909L68.24,54l.367-1.125,1.613-.49,2.03-6.905a.363.363,0,0,1,.137-.2.37.37,0,0,1,.229-.072H74.8a.287.287,0,0,1,.109.019.281.281,0,0,1,.095.058.267.267,0,0,1,.064.091.277.277,0,0,1,.025.109v.094L73.381,51.4,75,50.909l-.345,1.172Z" transform="translate(-60.796 -40.277)" fill="#fff"/>
  </g>
</svg>
