<svg xmlns="http://www.w3.org/2000/svg" width="60" height="60" viewBox="0 0 60 60">
  <g id="ico-pig" transform="translate(-459 -568)">
    <circle id="Эллипс_4" data-name="Эллипс 4" cx="30" cy="30" r="30" transform="translate(459 568)" fill="#e6e6e7"/>
    <g id="deposit-2" transform="translate(471.009 579.407)">
      <path id="Контур_1777" data-name="Контур 1777" d="M28.71,30.928a.928.928,0,0,0,.928.928h.135V30h-.135A.928.928,0,0,0,28.71,30.928Z" transform="translate(-12.709 -12.303)" fill="#2c3031"/>
      <path id="Контур_1778" data-name="Контур 1778" d="M30.526,16.769H28.9a9.437,9.437,0,0,0-2.242-4.308L28.13,8.353a.464.464,0,0,0-.232-.571c-.13-.065-3.277-1.588-6.072-.079A5.375,5.375,0,0,0,19.97,9.355a.432.432,0,0,0-.121-.014H15.207a.5.5,0,0,0-.116,0,9.442,9.442,0,0,0-7.822,4.642,1.249,1.249,0,0,1-.186,0,1.16,1.16,0,1,1,0-2.321,1.133,1.133,0,0,1,.464.093L7.91,10.9a2.089,2.089,0,1,0-1.1,3.987A9.443,9.443,0,0,0,8.671,25.528l-.71,1.741a2.094,2.094,0,0,0,1.147,2.72,2.047,2.047,0,0,0,.789.158,2.1,2.1,0,0,0,1.936-1.309L12.25,27.8a9.516,9.516,0,0,0,2.841.571.464.464,0,0,0,.116,0h4.642a.464.464,0,0,0,.116,0,9.748,9.748,0,0,0,2.015-.3l.316.761a2.089,2.089,0,0,0,1.123,1.137,2.061,2.061,0,0,0,1.6,0,2.094,2.094,0,0,0,1.147-2.72L25.7,26.131A9.284,9.284,0,0,0,27.485,24.2h2.576a.464.464,0,0,0,.464-.432l.464-6.5a.468.468,0,0,0-.464-.5Zm-12.4,2.785a1.857,1.857,0,1,1,0,3.714h-.135V24.4h-.928V23.267h-.135a1.857,1.857,0,0,1-1.857-1.857H16a.928.928,0,0,0,.928.928h.135V20.482h-.135a1.857,1.857,0,0,1,0-3.714h.135V15.641h.928v1.128h.135a1.857,1.857,0,0,1,1.857,1.857h-.928a.928.928,0,0,0-.928-.928h-.135v1.857Zm2.507-6.5a9.911,9.911,0,0,0-6.661,0l-.316-.873a10.978,10.978,0,0,1,7.265,0Zm4.322,4.178a.928.928,0,1,1,.928-.928A.928.928,0,0,1,24.955,17.233Z" transform="translate(0 0)" fill="#2c3031"/>
      <path id="Контур_1779" data-name="Контур 1779" d="M33,37.857h.135a.928.928,0,0,0,0-1.857H33Z" transform="translate(-15.008 -15.518)" fill="#2c3031"/>
    </g>
  </g>
</svg>
