<svg xmlns="http://www.w3.org/2000/svg" width="40" height="40" viewBox="0 0 40 40">
  <g id="ico-security-monitoring" transform="translate(-1006 -1098)">
    <circle id="Эллипс_7" data-name="Эллипс 7" cx="20" cy="20" r="20" transform="translate(1006 1098)" fill="#dff8ec"/>
    <path id="alert" d="M20.782,14.456,14.606,3.748a3.917,3.917,0,0,0-6.7,0L1.729,14.456a3.5,3.5,0,0,0,.059,3.613A3.864,3.864,0,0,0,5.079,19.86H17.432a3.864,3.864,0,0,0,3.291-1.79A3.5,3.5,0,0,0,20.782,14.456ZM10.557,8.2a.7.7,0,0,1,1.4,0v3.55a.7.7,0,0,1-1.4,0Zm.7,7.1a.888.888,0,1,1,.931-.887A.91.91,0,0,1,11.255,15.3Z" transform="translate(1014.744 1107.14)" fill="#9dedc6"/>
  </g>
</svg>
