<svg xmlns="http://www.w3.org/2000/svg" xmlns:xlink="http://www.w3.org/1999/xlink" width="648" height="400" viewBox="0 0 648 400">
  <defs>
    <radialGradient id="radial-gradient" cx="0.5" cy="0.5" r="0.684" gradientTransform="translate(0 -0.113) scale(1 1.226)" gradientUnits="objectBoundingBox">
      <stop offset="0" stop-color="#fff"/>
      <stop offset="1" stop-color="#dff8ec"/>
    </radialGradient>
  </defs>
  <g id="img-dw-check" transform="translate(-5972 1048)">
    <path id="img-dw-check-2" data-name="img-dw-check" d="M36,0H612a36,36,0,0,1,36,36V400H0V36A36,36,0,0,1,36,0Z" transform="translate(5972 -1048)" fill="url(#radial-gradient)"/>
    <g id="Сгруппировать_575" data-name="Сгруппировать 575" transform="translate(6039.208 -1057.497)">
      <path id="Контур_752" data-name="Контур 752" d="M370.1,344.789s.457-.645,1.37-1.849c.237-.305.491-.645.778-1.018.254-.39.491-.848.778-1.34a20.3,20.3,0,0,0,1.742-3.494c.271-.7.592-1.408.863-2.188.22-.8.457-1.628.694-2.51a17.414,17.414,0,0,0,.575-2.8,28.3,28.3,0,0,0,.423-3.087,58.563,58.563,0,0,0-.677-14.876c-1.709-11.127-6.429-24.239-13.635-38.487-7.19-14.282-17.1-29.633-29.267-45.628A466.8,466.8,0,0,0,290.1,178.356a533.746,533.746,0,0,0-57.3-49.038c-10.692-7.887-21.976-15.52-33.869-22.729A327.978,327.978,0,0,0,161.31,86.811C148.1,81.044,134.157,76.04,119.457,73.649c-7.325-1.136-14.887-1.679-22.314-.543a41.162,41.162,0,0,0-10.776,3.138,30.31,30.31,0,0,0-9.051,6.632,30.626,30.626,0,0,0-5.566,9.77,41.983,41.983,0,0,0-1.878,11.093c-.288,7.531,1.117,15.012,3.079,22.186,4.026,14.384,10.59,27.7,17.8,40.217a327.5,327.5,0,0,0,23.887,35.23c8.492,11.025,17.357,21.406,26.374,31.16a533.565,533.565,0,0,0,55.117,51.5A464.161,464.161,0,0,0,249.8,321.907c17.239,10.3,33.581,18.421,48.553,23.968,14.938,5.564,28.455,8.752,39.671,9.194a58.236,58.236,0,0,0,14.82-1.018,29.991,29.991,0,0,0,3.011-.78,15.845,15.845,0,0,0,2.707-.9c.846-.339,1.641-.662,2.419-.967.744-.356,1.4-.763,2.064-1.12a18.624,18.624,0,0,0,3.248-2.137c.44-.339.88-.628,1.235-.933.338-.322.643-.628.914-.882,1.083-1.018,1.658-1.544,1.658-1.544s-.541.56-1.607,1.645c-.271.271-.575.577-.914.9-.355.305-.778.611-1.235.95a19.639,19.639,0,0,1-3.248,2.171c-.643.356-1.32.763-2.064,1.136-.761.322-1.573.645-2.419,1a17.7,17.7,0,0,1-2.724.916,25.438,25.438,0,0,1-3.028.8,57.736,57.736,0,0,1-14.887,1.1c-11.267-.39-24.852-3.545-39.84-9.075-15.023-5.513-31.4-13.6-48.688-23.883a466.691,466.691,0,0,1-53.814-37.843,534.52,534.52,0,0,1-55.252-51.514c-9.051-9.77-17.932-20.151-26.441-31.193a327.458,327.458,0,0,1-23.955-35.315c-7.241-12.552-13.838-25.918-17.9-40.421-1.962-7.225-3.4-14.773-3.113-22.44A42.656,42.656,0,0,1,70.9,92.375,31.737,31.737,0,0,1,76.639,82.3a31.377,31.377,0,0,1,9.338-6.853,42.158,42.158,0,0,1,11.03-3.206c7.562-1.153,15.209-.594,22.585.56,14.819,2.409,28.81,7.446,42.073,13.231a326.911,326.911,0,0,1,37.709,19.846c11.91,7.226,23.211,14.892,33.919,22.8a531.32,531.32,0,0,1,57.333,49.173,465.351,465.351,0,0,1,43.63,49.292c12.164,16.046,22.043,31.465,29.216,45.8,7.173,14.3,11.859,27.462,13.534,38.657a58.949,58.949,0,0,1,.609,14.961,29.09,29.09,0,0,1-.457,3.1,16.27,16.27,0,0,1-.609,2.816c-.254.882-.491,1.73-.711,2.527-.288.78-.609,1.493-.9,2.188a20.216,20.216,0,0,1-1.793,3.494c-.288.475-.524.95-.8,1.34-.288.373-.558.712-.8,1C370.595,344.2,370.1,344.789,370.1,344.789Z" transform="translate(20.452 11.143)" fill="#f6d25d"/>
      <path id="Контур_753" data-name="Контур 753" d="M439.757,184.847s-.085-.778-.2-2.284q-.051-.558-.1-1.269c-.068-.457-.2-.964-.3-1.506a21,21,0,0,0-1.015-3.756c-.254-.694-.491-1.438-.8-2.2-.372-.744-.744-1.523-1.15-2.335a18.471,18.471,0,0,0-1.421-2.47,28.653,28.653,0,0,0-1.726-2.588,57.906,57.906,0,0,0-10.387-10.624c-8.662-7.139-20.876-13.771-35.713-19.573-14.853-5.837-32.431-10.675-52.139-14.481a465.582,465.582,0,0,0-65.2-7.528,534.559,534.559,0,0,0-75.316,1.641c-13.212,1.252-26.713,3.079-40.365,5.633a328.374,328.374,0,0,0-41.211,10.32c-13.686,4.517-27.423,10.049-39.976,18.068-6.226,4.026-12.231,8.662-17.019,14.447a42.029,42.029,0,0,0-5.972,9.508,26.817,26.817,0,0,0-.017,21.925,41.446,41.446,0,0,0,5.972,9.508c4.788,5.8,10.793,10.421,17.019,14.464,12.553,8.019,26.29,13.568,39.976,18.085a328.375,328.375,0,0,0,41.211,10.32c13.652,2.555,27.152,4.382,40.365,5.634a534.558,534.558,0,0,0,75.316,1.641,465.578,465.578,0,0,0,65.2-7.528c19.709-3.806,37.286-8.645,52.139-14.481,14.837-5.8,27.051-12.434,35.713-19.573a57.91,57.91,0,0,0,10.387-10.624,28.674,28.674,0,0,0,1.726-2.588,16.8,16.8,0,0,0,1.421-2.47c.406-.812.8-1.59,1.15-2.335.3-.761.541-1.506.8-2.2a21.006,21.006,0,0,0,1.015-3.756c.118-.541.237-1.049.3-1.506q.051-.711.1-1.269c.135-1.489.22-2.25.22-2.25s-.017.778-.118,2.284c-.017.389-.051.812-.085,1.269-.051.474-.186.964-.288,1.523a19.949,19.949,0,0,1-.981,3.79c-.254.694-.474,1.455-.778,2.216-.355.744-.744,1.539-1.133,2.352a18.8,18.8,0,0,1-1.421,2.5,28.87,28.87,0,0,1-1.726,2.605,58.062,58.062,0,0,1-10.37,10.726c-8.679,7.207-20.893,13.906-35.746,19.759-14.87,5.887-32.464,10.776-52.19,14.634a463.574,463.574,0,0,1-65.284,7.647A533.2,533.2,0,0,1,194.2,254.6c-13.246-1.252-26.763-3.062-40.449-5.617a327.986,327.986,0,0,1-41.329-10.337c-13.737-4.517-27.525-10.083-40.179-18.169-6.276-4.077-12.35-8.746-17.222-14.634a42.552,42.552,0,0,1-6.09-9.727,27.772,27.772,0,0,1,.017-22.635,42.254,42.254,0,0,1,6.107-9.727c4.889-5.887,10.962-10.556,17.222-14.617,12.654-8.07,26.442-13.635,40.179-18.152a327.022,327.022,0,0,1,41.313-10.336c13.686-2.555,27.2-4.365,40.449-5.617a532.974,532.974,0,0,1,75.418-1.556,463.579,463.579,0,0,1,65.284,7.647c19.726,3.857,37.337,8.746,52.207,14.634,14.853,5.87,27.085,12.553,35.746,19.76a58.2,58.2,0,0,1,10.387,10.726,28.85,28.85,0,0,1,1.726,2.605,18.8,18.8,0,0,1,1.421,2.5c.406.829.778,1.607,1.133,2.352.3.761.541,1.523.778,2.216a19.629,19.629,0,0,1,.981,3.789c.1.558.237,1.049.288,1.523.034.474.051.9.085,1.269C439.741,184.069,439.757,184.847,439.757,184.847Z" transform="translate(5.797 40.048)" fill="#f6d25d"/>
      <path id="Контур_754" data-name="Контур 754" d="M340.317,61.776s-.66-.407-1.929-1.238c-.321-.2-.677-.441-1.066-.7-.406-.237-.88-.441-1.387-.678a20.09,20.09,0,0,0-3.586-1.492c-.711-.22-1.438-.492-2.233-.712-.812-.17-1.658-.339-2.555-.526a18.023,18.023,0,0,0-2.825-.39,29.888,29.888,0,0,0-3.1-.22,57.249,57.249,0,0,0-14.752,1.712c-10.962,2.476-23.667,8.088-37.354,16.279-13.7,8.173-28.3,19.144-43.393,32.4a465.984,465.984,0,0,0-45.9,47.021A535.409,535.409,0,0,0,135.4,213.911c-7.105,11.242-13.94,23.044-20.284,35.439a327.658,327.658,0,0,0-17.086,38.983c-4.821,13.616-8.848,27.894-10.2,42.765a74.671,74.671,0,0,0,.981,22.366,42.086,42.086,0,0,0,3.857,10.564,30.646,30.646,0,0,0,7.224,8.6,30.171,30.171,0,0,0,10.1,4.883,42.054,42.054,0,0,0,11.182,1.119c7.511-.237,14.853-2.154,21.857-4.6,14.024-5.019,26.831-12.5,38.792-20.568a325.651,325.651,0,0,0,33.412-26.3c10.387-9.241,20.1-18.822,29.182-28.521a535.147,535.147,0,0,0,47.436-58.653,467.916,467.916,0,0,0,33.987-56.279c9.068-17.957,16.021-34.846,20.5-50.192,4.5-15.312,6.75-29.063,6.412-40.306a58.9,58.9,0,0,0-2.03-14.752,28.678,28.678,0,0,0-.981-2.95,16.286,16.286,0,0,0-1.083-2.645c-.389-.814-.778-1.611-1.133-2.34-.406-.712-.863-1.357-1.252-1.984a21.057,21.057,0,0,0-2.335-3.1c-.372-.424-.677-.831-1.015-1.17-.355-.322-.66-.593-.947-.865-1.1-1.085-1.658-1.628-1.658-1.628s.592.492,1.742,1.492c.288.254.609.526.964.848.338.339.66.746,1.032,1.17a19.954,19.954,0,0,1,2.385,3.1c.406.627.863,1.272,1.269,1.984.372.746.761,1.526,1.167,2.357a17.176,17.176,0,0,1,1.1,2.662,24.4,24.4,0,0,1,1,2.967,59.038,59.038,0,0,1,2.132,14.8c.389,11.293-1.827,25.1-6.276,40.458-4.449,15.4-11.368,32.336-20.419,50.344a465.013,465.013,0,0,1-33.953,56.415A534.393,534.393,0,0,1,245,299.169c-9.1,9.716-18.812,19.314-29.216,28.589a327.21,327.21,0,0,1-33.479,26.385c-11.994,8.105-24.835,15.617-38.978,20.67a74.569,74.569,0,0,1-22.128,4.663,42.58,42.58,0,0,1-11.419-1.153,31.141,31.141,0,0,1-10.421-5.053A31.511,31.511,0,0,1,91.9,364.4a42.243,42.243,0,0,1-3.942-10.8c-1.658-7.495-1.624-15.159-1-22.62,1.37-14.99,5.43-29.318,10.269-42.968a325.289,325.289,0,0,1,17.154-39.068c6.361-12.412,13.212-24.231,20.335-35.49a534.838,534.838,0,0,1,44.966-60.7,466.62,466.62,0,0,1,46.049-47.021c15.141-13.26,29.791-24.214,43.545-32.37,13.737-8.173,26.51-13.752,37.523-16.194a57.62,57.62,0,0,1,14.837-1.628,30.124,30.124,0,0,1,3.113.237,18.5,18.5,0,0,1,2.842.407c.9.187,1.742.373,2.555.543.8.237,1.539.509,2.233.746a20.132,20.132,0,0,1,3.586,1.543c.508.254.981.475,1.387.712.389.271.744.509,1.049.729C339.691,61.318,340.317,61.776,340.317,61.776Z" transform="translate(32.58)" fill="#f6d25d"/>
      <path id="Контур_755" data-name="Контур 755" d="M50.6,204.172a7.3,7.3,0,1,1-10.32,0A7.311,7.311,0,0,1,50.6,204.172Z" transform="translate(0 101.971)" fill="#9dedc6"/>
      <path id="Контур_763" data-name="Контур 763" d="M50.6,204.172a7.3,7.3,0,1,1-10.32,0A7.311,7.311,0,0,1,50.6,204.172Z" transform="translate(-67.358 -143.872)" fill="#9dedc6"/>
      <path id="Контур_765" data-name="Контур 765" d="M50.6,204.172a7.3,7.3,0,1,1-10.32,0A7.311,7.311,0,0,1,50.6,204.172Z" transform="translate(446.125 141.128)" fill="#9dedc6"/>
      <path id="Контур_756" data-name="Контур 756" d="M294.743,72.681a7.291,7.291,0,1,1-7.291-7.291A7.292,7.292,0,0,1,294.743,72.681Z" transform="translate(165.532 6.843)" fill="#9dedc6"/>
      <path id="Контур_768" data-name="Контур 768" d="M294.743,72.681a7.291,7.291,0,1,1-7.291-7.291A7.292,7.292,0,0,1,294.743,72.681Z" transform="translate(-211.593 67.428)" fill="#9dedc6"/>
      <path id="Контур_757" data-name="Контур 757" d="M74.262,218.241A1.861,1.861,0,1,1,72.4,216.38,1.856,1.856,0,0,1,74.262,218.241Z" transform="translate(22.004 112.039)" fill="#f19338"/>
      <path id="Контур_764" data-name="Контур 764" d="M74.262,218.241A1.861,1.861,0,1,1,72.4,216.38,1.856,1.856,0,0,1,74.262,218.241Z" transform="translate(-44.952 -133.805)" fill="#f19338"/>
      <path id="Контур_766" data-name="Контур 766" d="M74.262,218.241A1.861,1.861,0,1,1,72.4,216.38,1.856,1.856,0,0,1,74.262,218.241Z" transform="translate(468.53 151.195)" fill="#f19338"/>
      <path id="Контур_758" data-name="Контур 758" d="M97.652,97.421a1.861,1.861,0,1,1-1.861-1.861A1.856,1.856,0,0,1,97.652,97.421Z" transform="translate(38.053 27.872)" fill="#f19338"/>
      <path id="Контур_759" data-name="Контур 759" d="M268.642,156.151a1.861,1.861,0,1,1-1.861-1.861A1.856,1.856,0,0,1,268.642,156.151Z" transform="translate(155.382 68.731)" fill="#f19338"/>
      <path id="Контур_760" data-name="Контур 760" d="M283.872,105.061a1.861,1.861,0,1,1-1.861-1.861A1.877,1.877,0,0,1,283.872,105.061Z" transform="translate(165.525 33.187)" fill="#f19338"/>
      <path id="Контур_769" data-name="Контур 769" d="M283.872,105.061a1.861,1.861,0,1,1-1.861-1.861A1.877,1.877,0,0,1,283.872,105.061Z" transform="translate(244.525 -7.813)" fill="#f19338"/>
      <path id="Контур_767" data-name="Контур 767" d="M283.872,105.061a1.861,1.861,0,1,1-1.861-1.861A1.877,1.877,0,0,1,283.872,105.061Z" transform="translate(126.961 268.097)" fill="#f19338"/>
      <path id="Контур_761" data-name="Контур 761" d="M197.947,89.151c-45.383,0-82.191,37.786-82.191,84.415,0,46.611,36.79,84.416,82.191,84.416,45.381,0,82.19-37.785,82.19-84.416S243.347,89.151,197.947,89.151Zm0,156.186c-38.586,0-69.88-32.122-69.88-71.771,0-39.629,31.276-71.77,69.88-71.77,38.584,0,69.878,32.121,69.878,71.77C267.825,213.2,236.55,245.338,197.947,245.338Z" transform="translate(48.349 23.535)" fill="#9dedc6"/>
      <path id="Контур_762" data-name="Контур 762" d="M184.187,211.84a12.806,12.806,0,0,1-9.18-3.915l-38.458-39.5a13.6,13.6,0,0,1,0-18.874,12.754,12.754,0,0,1,18.378,0l29.26,30.053,72-73.954a12.752,12.752,0,0,1,18.376,0,13.6,13.6,0,0,1,0,18.874l-81.183,83.381A12.718,12.718,0,0,1,184.187,211.84Z" transform="translate(62.398 34.029)" fill="#16c784"/>
    </g>
  </g>
</svg>
