<svg xmlns="http://www.w3.org/2000/svg" xmlns:xlink="http://www.w3.org/1999/xlink" width="128" height="40" viewBox="0 0 128 40">
  <defs>
    <linearGradient id="linear-gradient" x1="-0.217" y1="-0.363" x2="0.532" y2="0.684" gradientUnits="objectBoundingBox">
      <stop offset="0" stop-color="#fffc69"/>
      <stop offset="0.17" stop-color="#fdf165"/>
      <stop offset="0.464" stop-color="#f8d55d"/>
      <stop offset="0.668" stop-color="#f5be57"/>
      <stop offset="0.759" stop-color="#f4ba54"/>
      <stop offset="0.835" stop-color="#f3b04d"/>
      <stop offset="0.905" stop-color="#f29f40"/>
      <stop offset="0.972" stop-color="#ef862f"/>
      <stop offset="0.992" stop-color="#ef7e29"/>
    </linearGradient>
    <linearGradient id="linear-gradient-2" x1="0.297" y1="1.277" x2="0.562" y2="-0.038" gradientUnits="objectBoundingBox">
      <stop offset="0" stop-color="#fffc69"/>
      <stop offset="0.176" stop-color="#fdf166"/>
      <stop offset="0.482" stop-color="#f9d55e"/>
      <stop offset="0.878" stop-color="#f3a753"/>
      <stop offset="1" stop-color="#f1984f"/>
    </linearGradient>
    <linearGradient id="linear-gradient-3" x1="0.058" y1="1.059" x2="0.959" y2="0.365" xlink:href="#linear-gradient-2"/>
    <linearGradient id="linear-gradient-4" x1="0.185" y1="0.637" x2="0.653" y2="0.005" gradientUnits="objectBoundingBox">
      <stop offset="0" stop-color="#fffc69"/>
      <stop offset="0.283" stop-color="#fdf171"/>
      <stop offset="0.773" stop-color="#f8d586"/>
      <stop offset="1" stop-color="#f6c692"/>
    </linearGradient>
    <linearGradient id="linear-gradient-5" x1="0.45" y1="0.972" x2="0.552" y2="-0.015" gradientUnits="objectBoundingBox">
      <stop offset="0" stop-color="#fffffd" stop-opacity="0"/>
      <stop offset="0.211" stop-color="#fcf0e2" stop-opacity="0.063"/>
      <stop offset="0.614" stop-color="#f6ca9c" stop-opacity="0.224"/>
      <stop offset="1" stop-color="#f0a050" stop-opacity="0.4"/>
    </linearGradient>
    <linearGradient id="linear-gradient-6" x1="0.078" y1="1.003" x2="0.968" y2="0.274" gradientUnits="objectBoundingBox">
      <stop offset="0" stop-color="#fffc69"/>
      <stop offset="0.137" stop-color="#fef767" stop-opacity="0.969"/>
      <stop offset="0.376" stop-color="#fcea63" stop-opacity="0.886"/>
      <stop offset="0.687" stop-color="#f9d55d" stop-opacity="0.753"/>
      <stop offset="1" stop-color="#f6be56" stop-opacity="0.6"/>
    </linearGradient>
    <linearGradient id="linear-gradient-7" x1="0.468" y1="0.997" x2="0.556" y2="-0.006" xlink:href="#linear-gradient-5"/>
  </defs>
  <g id="logo" transform="translate(195.73 2494.28)">
    <g id="Сгруппировать_75" data-name="Сгруппировать 75" transform="translate(-195.73 -2494.28)">
      <g id="Сгруппировать_72" data-name="Сгруппировать 72" transform="translate(0 0)">
        <g id="Сгруппировать_70" data-name="Сгруппировать 70">
          <path id="Контур_140" data-name="Контур 140" d="M113.326,154.41a10.04,10.04,0,0,1-9.766,10.02c-.1.007-.185.007-.281.007h-20.2A10.022,10.022,0,0,1,93.108,154.41H95.22l3.093-.013v-9.581a.357.357,0,0,1,.364-.363h4.6a9.781,9.781,0,0,1,10.048,9.958Z" transform="translate(-83.073 -130.132)" fill="url(#linear-gradient)"/>
          <path id="Контур_141" data-name="Контур 141" d="M113.323,110.371a10.336,10.336,0,0,1-10.335,10.335h-2.441l-3.639-7.42a.452.452,0,0,0-.81,0l-5.27,10.757a.462.462,0,0,0,.41.659h3.369a.314.314,0,0,1,.313.313v2.722a4.824,4.824,0,0,1-4.838,4.806,4.906,4.906,0,0,1-3.434-1.4c-.108-.119-.216-.227-.324-.357-.043-.054-.1-.108-.151-.172a12.134,12.134,0,0,1,7.636-20.153,12.321,12.321,0,0,1,1.415-.086Z" transform="translate(-83.072 -110.371)" fill="url(#linear-gradient-2)"/>
        </g>
        <g id="Сгруппировать_71" data-name="Сгруппировать 71" transform="translate(0.001 0.002)">
          <path id="Контур_142" data-name="Контур 142" d="M113.324,155.893a10.037,10.037,0,0,1-9.766,10.017,2.573,2.573,0,0,1-.281.01h-20.2a10.013,10.013,0,0,1,10.033-10.028h2.11L98,155.878h.311v-.01a10.026,10.026,0,0,0,9.656-8.857,10.037,10.037,0,0,1,5.355,8.882Z" transform="translate(-83.075 -131.617)" fill="url(#linear-gradient-3)"/>
          <path id="Контур_143" data-name="Контур 143" d="M99.081,110.375a13.969,13.969,0,0,0-11.967,21.171,5.086,5.086,0,0,1-.467-.4c-.106-.12-.216-.231-.322-.357-.045-.055-.1-.111-.151-.176a12.132,12.132,0,0,1,7.631-20.151c.246-.03.5-.05.744-.065.226-.015.447-.02.673-.02Z" transform="translate(-83.075 -110.375)" fill="url(#linear-gradient-4)"/>
        </g>
        <path id="Контур_144" data-name="Контур 144" d="M109.5,124.038a13.661,13.661,0,0,1-7.2,12.042c-.04-.03-.08-.065-.12-.1a4.812,4.812,0,0,0,3.356-4.577v-2.718a.315.315,0,0,0-.316-.316h-3.366a.462.462,0,0,1-.412-.658l4.456-9.1.814-1.658a.437.437,0,0,1,.5-.241c.02.005.035.01.05.015a.151.151,0,0,1,.05.02.2.2,0,0,1,.055.035.384.384,0,0,1,.075.061.427.427,0,0,1,.076.11l.005.005.628,1.291.432.869A13.562,13.562,0,0,1,109.5,124.038Z" transform="translate(-93.693 -114.039)" fill="url(#linear-gradient-5)"/>
      </g>
      <g id="Сгруппировать_74" data-name="Сгруппировать 74" transform="translate(7.709 2.662)">
        <g id="Сгруппировать_73" data-name="Сгруппировать 73" transform="translate(8.993 14.989)">
          <path id="Контур_145" data-name="Контур 145" d="M136.328,158.83V159a10.56,10.56,0,0,1-.06,1.13,9.822,9.822,0,0,1-.377,1.8c-.045.151-.1.306-.151.457a9.769,9.769,0,0,1-.513,1.171c-.1.191-.2.377-.307.558-.161.271-.336.532-.522.789a0,0,0,0,0-.005.005,9.89,9.89,0,0,1-.919,1.08,9.735,9.735,0,0,1-1.989,1.578c-.216.136-.442.261-.673.377q-.218.113-.437.211a8.091,8.091,0,0,1-.779.3c-.075.03-.151.056-.226.081-.216.07-.427.13-.648.186s-.442.1-.663.14a10.371,10.371,0,0,1-1.492.151,1.414,1.414,0,0,1-.146.005h-3.637A12.129,12.129,0,0,0,133.847,152.4c.005-.005-.005-.01-.005-.01s-.005-.01-.005-.015c.05.056.1.116.151.176.076.09.151.181.221.276A9.819,9.819,0,0,1,135,154c.121.211.236.427.337.643.08.161.151.322.221.487.005.01.005.015.01.025.08.191.156.392.221.588.106.312.2.623.271.94q.075.332.136.663c.05.321.085.648.11.975.005.111.01.226.015.336C136.328,158.714,136.328,158.774,136.328,158.83Z" transform="translate(-122.784 -152.374)" fill="url(#linear-gradient-6)"/>
        </g>
        <path id="Контур_146" data-name="Контур 146" d="M108.139,123.757c-.02.181-.04.352-.06.522v.005a11.927,11.927,0,0,1-2.537,6.265V128.68a.3.3,0,0,0-.055-.171V128.5c-.015-.015-.025-.03-.04-.045a.318.318,0,0,0-.226-.09h-3.366a.436.436,0,0,1-.321-.141.294.294,0,0,1-.035-.045.416.416,0,0,1-.04-.061c-.01-.025-.02-.045-.03-.07a.287.287,0,0,1-.02-.07.577.577,0,0,1-.005-.1.563.563,0,0,1,.045-.176l4.456-9.1.814-1.658a.446.446,0,0,1,.075-.111.428.428,0,0,1,.422-.13l.055.015a.125.125,0,0,1,.045.02.2.2,0,0,1,.055.035A21.608,21.608,0,0,1,108.139,123.757Z" transform="translate(-101.402 -116.701)" fill="url(#linear-gradient-7)"/>
      </g>
    </g>
    <g id="Сгруппировать_77" data-name="Сгруппировать 77" transform="translate(-161.271 -2482.327)">
      <g id="Сгруппировать_76" data-name="Сгруппировать 76" transform="translate(0 0)">
        <path id="Контур_147" data-name="Контур 147" d="M165.94,174.935V156.948a3.841,3.841,0,0,1,3.841-3.841h0l.061,2.164a6.954,6.954,0,0,1,1.936-1.768,5.767,5.767,0,0,1,3.125-.762,7.1,7.1,0,0,1,3.81,1.037,7.431,7.431,0,0,1,2.652,2.835,8.427,8.427,0,0,1,.976,4.085,8.337,8.337,0,0,1-.976,4.07,7.345,7.345,0,0,1-2.652,2.8,7.178,7.178,0,0,1-3.81,1.022,6.6,6.6,0,0,1-2.988-.641,5.381,5.381,0,0,1-2.073-1.8v4.878a3.9,3.9,0,0,1-3.9,3.9Zm8.14-9.756a4.122,4.122,0,0,0,3.08-1.25,4.435,4.435,0,0,0,1.219-3.231,4.543,4.543,0,0,0-1.219-3.262,4.381,4.381,0,0,0-6.174-.015,4.98,4.98,0,0,0,0,6.494A4.082,4.082,0,0,0,174.08,165.179Z" transform="translate(-165.94 -146.888)" fill="#0c0d29"/>
        <path id="Контур_148" data-name="Контур 148" d="M216.367,168.594a7.789,7.789,0,0,1-3.948-1.006,7.381,7.381,0,0,1-2.774-2.79,8.16,8.16,0,0,1-1.021-4.131,8.07,8.07,0,0,1,1.036-4.131,7.489,7.489,0,0,1,2.789-2.79,8.19,8.19,0,0,1,7.866,0,7.387,7.387,0,0,1,2.774,2.79,8.865,8.865,0,0,1,0,8.262,7.362,7.362,0,0,1-2.79,2.79A7.815,7.815,0,0,1,216.367,168.594Zm0-3.384a3.606,3.606,0,0,0,2.653-1.144,5.686,5.686,0,0,0,0-6.8,3.631,3.631,0,0,0-5.289,0,5.748,5.748,0,0,0,0,6.8A3.554,3.554,0,0,0,216.367,165.21Z" transform="translate(-190.672 -146.888)" fill="#0c0d29"/>
        <path id="Контур_149" data-name="Контур 149" d="M254.069,163.146a5.879,5.879,0,0,1-3.811-1.159q-1.433-1.158-1.433-4.115v-6.585h-2.591v-.671a2.591,2.591,0,0,1,2.591-2.591h0l.072-.632a3.855,3.855,0,0,1,3.831-3.423h0v4.055h4.085a3.262,3.262,0,0,1-3.262,3.262h-.823V157.9a1.94,1.94,0,0,0,.473,1.509,1.531,1.531,0,0,0,1.1.412h0c2.342.026,2.422,2.279,2.422,3.323h-2.652Z" transform="translate(-212.464 -141.806)" fill="#0c0d29"/>
        <path id="Контур_150" data-name="Контур 150" d="M279.408,160.164v-18.2h-6.219a3.14,3.14,0,0,1,3.14-3.14H289.56a3.14,3.14,0,0,1-3.141,3.14H283.31v14.3a3.9,3.9,0,0,1-3.9,3.9Z" transform="translate(-228.082 -138.824)" fill="#0c0d29"/>
        <path id="Контур_151" data-name="Контур 151" d="M315.425,168.594a7.789,7.789,0,0,1-3.948-1.006,7.381,7.381,0,0,1-2.774-2.79,8.16,8.16,0,0,1-1.021-4.131,8.069,8.069,0,0,1,1.036-4.131,7.486,7.486,0,0,1,2.789-2.79,8.19,8.19,0,0,1,7.865,0,7.385,7.385,0,0,1,2.775,2.79,8.865,8.865,0,0,1,0,8.262,7.362,7.362,0,0,1-2.79,2.79A7.815,7.815,0,0,1,315.425,168.594Zm0-3.384a3.607,3.607,0,0,0,2.653-1.144,5.685,5.685,0,0,0,0-6.8,3.631,3.631,0,0,0-5.289,0,5.746,5.746,0,0,0,0,6.8A3.554,3.554,0,0,0,315.425,165.21Z" transform="translate(-248.068 -146.888)" fill="#0c0d29"/>
        <path id="Контур_152" data-name="Контур 152" d="M349.351,174.935V156.948a3.841,3.841,0,0,1,3.841-3.841h0l.061,2.164a6.956,6.956,0,0,1,1.936-1.768,5.765,5.765,0,0,1,3.125-.762,7.1,7.1,0,0,1,3.81,1.037,7.427,7.427,0,0,1,2.652,2.835,8.426,8.426,0,0,1,.976,4.085,8.336,8.336,0,0,1-.976,4.07,7.342,7.342,0,0,1-2.652,2.8,7.178,7.178,0,0,1-3.81,1.022,6.6,6.6,0,0,1-2.988-.641,5.384,5.384,0,0,1-2.073-1.8v4.878a3.9,3.9,0,0,1-3.9,3.9Zm8.14-9.756a4.12,4.12,0,0,0,3.079-1.25,4.433,4.433,0,0,0,1.219-3.231,4.542,4.542,0,0,0-1.219-3.262,4.381,4.381,0,0,0-6.174-.015,4.98,4.98,0,0,0,0,6.494A4.082,4.082,0,0,0,357.491,165.179Z" transform="translate(-272.212 -146.888)" fill="#0c0d29"/>
      </g>
    </g>
  </g>
</svg>
