<svg xmlns="http://www.w3.org/2000/svg" xmlns:xlink="http://www.w3.org/1999/xlink" width="160" height="50" viewBox="0 0 160 50">
  <defs>
    <linearGradient id="linear-gradient" x1="-0.217" y1="-0.363" x2="0.532" y2="0.684" gradientUnits="objectBoundingBox">
      <stop offset="0" stop-color="#fffc69"/>
      <stop offset="0.17" stop-color="#fdf165"/>
      <stop offset="0.464" stop-color="#f8d55d"/>
      <stop offset="0.668" stop-color="#f5be57"/>
      <stop offset="0.759" stop-color="#f4ba54"/>
      <stop offset="0.835" stop-color="#f3b04d"/>
      <stop offset="0.905" stop-color="#f29f40"/>
      <stop offset="0.972" stop-color="#ef862f"/>
      <stop offset="0.992" stop-color="#ef7e29"/>
    </linearGradient>
    <linearGradient id="linear-gradient-2" x1="0.297" y1="1.277" x2="0.562" y2="-0.038" gradientUnits="objectBoundingBox">
      <stop offset="0" stop-color="#fffc69"/>
      <stop offset="0.176" stop-color="#fdf166"/>
      <stop offset="0.482" stop-color="#f9d55e"/>
      <stop offset="0.878" stop-color="#f3a753"/>
      <stop offset="1" stop-color="#f1984f"/>
    </linearGradient>
    <linearGradient id="linear-gradient-3" x1="0.058" y1="1.059" x2="0.959" y2="0.365" xlink:href="#linear-gradient-2"/>
    <linearGradient id="linear-gradient-4" x1="0.185" y1="0.637" x2="0.653" y2="0.005" gradientUnits="objectBoundingBox">
      <stop offset="0" stop-color="#fffc69"/>
      <stop offset="0.283" stop-color="#fdf171"/>
      <stop offset="0.773" stop-color="#f8d586"/>
      <stop offset="1" stop-color="#f6c692"/>
    </linearGradient>
    <linearGradient id="linear-gradient-5" x1="0.468" y1="0.997" x2="0.556" y2="-0.006" gradientUnits="objectBoundingBox">
      <stop offset="0" stop-color="#0c0d29" stop-opacity="0"/>
      <stop offset="1" stop-color="#fff" stop-opacity="0.412"/>
    </linearGradient>
    <linearGradient id="linear-gradient-6" x1="0.078" y1="1.003" x2="0.968" y2="0.274" gradientUnits="objectBoundingBox">
      <stop offset="0" stop-color="#fffc69"/>
      <stop offset="0.137" stop-color="#fef767" stop-opacity="0.969"/>
      <stop offset="0.376" stop-color="#fcea63" stop-opacity="0.886"/>
      <stop offset="0.687" stop-color="#f9d55d" stop-opacity="0.753"/>
      <stop offset="1" stop-color="#f6be56" stop-opacity="0.6"/>
    </linearGradient>
    <linearGradient id="linear-gradient-7" x1="0.468" y1="0.997" x2="0.556" y2="-0.006" gradientUnits="objectBoundingBox">
      <stop offset="0" stop-color="#0c0d29" stop-opacity="0"/>
      <stop offset="1" stop-color="#fff" stop-opacity="0.271"/>
    </linearGradient>
  </defs>
  <g id="logo-light" transform="translate(195.73 2494.28)">
    <g id="Сгруппировать_75" data-name="Сгруппировать 75" transform="translate(-195.73 -2494.28)">
      <g id="Сгруппировать_72" data-name="Сгруппировать 72" transform="translate(0 0)">
        <g id="Сгруппировать_70" data-name="Сгруппировать 70">
          <path id="Контур_140" data-name="Контур 140" d="M120.92,156.91A12.56,12.56,0,0,1,108.7,169.445c-.12.008-.232.008-.352.008H83.074A12.537,12.537,0,0,1,95.627,156.91h2.642l3.869-.017V144.907a.447.447,0,0,1,.455-.455h5.757a12.236,12.236,0,0,1,12.57,12.458Z" transform="translate(-83.073 -126.579)" fill="url(#linear-gradient)"/>
          <path id="Контур_141" data-name="Контур 141" d="M120.917,110.371a12.93,12.93,0,0,1-12.93,12.93h-3.054l-4.553-9.282a.566.566,0,0,0-1.013,0l-6.593,13.457a.578.578,0,0,0,.514.824H97.5a.392.392,0,0,1,.392.392v3.4a6.035,6.035,0,0,1-6.053,6.012,6.137,6.137,0,0,1-4.3-1.756c-.135-.149-.27-.284-.405-.446-.054-.067-.122-.135-.189-.216A15.18,15.18,0,0,1,96.5,110.479a15.413,15.413,0,0,1,1.77-.108Z" transform="translate(-83.072 -110.371)" fill="url(#linear-gradient-2)"/>
        </g>
        <g id="Сгруппировать_71" data-name="Сгруппировать 71" transform="translate(0.002 0.002)">
          <path id="Контур_142" data-name="Контур 142" d="M120.917,158.123A12.557,12.557,0,0,1,108.7,170.655a3.22,3.22,0,0,1-.352.013H83.075a12.526,12.526,0,0,1,12.551-12.545h2.64l3.482-.019h.389v-.013a12.543,12.543,0,0,0,12.08-11.08,12.557,12.557,0,0,1,6.7,11.112Z" transform="translate(-83.075 -127.794)" fill="url(#linear-gradient-3)"/>
          <path id="Контур_143" data-name="Контур 143" d="M103.1,110.375A17.475,17.475,0,0,0,88.128,136.86a6.366,6.366,0,0,1-.585-.5c-.132-.151-.27-.289-.4-.446-.057-.069-.126-.138-.188-.22A15.178,15.178,0,0,1,96.5,110.482c.308-.037.622-.063.93-.082.283-.019.559-.025.842-.025Z" transform="translate(-83.075 -110.375)" fill="url(#linear-gradient-4)"/>
        </g>
        <path id="Контур_144" data-name="Контур 144" d="M111.538,125.88a17.091,17.091,0,0,1-9.007,15.065c-.05-.037-.1-.082-.15-.126a6.02,6.02,0,0,0,4.2-5.726v-3.4a.394.394,0,0,0-.4-.4h-4.211a.578.578,0,0,1-.515-.823l5.575-11.382,1.018-2.074a.546.546,0,0,1,.629-.3c.025.006.044.013.063.019a.189.189,0,0,1,.063.025.252.252,0,0,1,.069.044.48.48,0,0,1,.094.076.534.534,0,0,1,.095.138l.006.006.786,1.615.54,1.088A16.967,16.967,0,0,1,111.538,125.88Z" transform="translate(-91.757 -113.37)" fill="url(#linear-gradient-5)"/>
      </g>
      <g id="Сгруппировать_74" data-name="Сгруппировать 74" transform="translate(9.645 3.331)">
        <g id="Сгруппировать_73" data-name="Сгруппировать 73" transform="translate(11.25 18.711)">
          <path id="Контур_145" data-name="Контур 145" d="M139.728,160.451v.214a13.214,13.214,0,0,1-.075,1.414,12.289,12.289,0,0,1-.471,2.257c-.057.188-.119.383-.188.572a12.22,12.22,0,0,1-.641,1.464c-.119.239-.245.471-.384.7-.2.339-.421.666-.654.987a.006.006,0,0,0-.006.006,12.374,12.374,0,0,1-1.15,1.351,12.179,12.179,0,0,1-2.489,1.974c-.27.17-.553.327-.842.471q-.273.141-.547.264a10.123,10.123,0,0,1-.974.377c-.094.038-.188.069-.283.1-.27.088-.534.163-.811.233s-.553.125-.83.176a12.976,12.976,0,0,1-1.866.188,1.772,1.772,0,0,1-.183.006h-4.55a15.174,15.174,0,0,0,13.84-20.8c.006-.006-.006-.013-.006-.013s-.006-.013-.006-.019c.063.069.126.145.188.22.095.113.189.226.277.346a12.282,12.282,0,0,1,.993,1.471c.151.264.3.535.421.8.1.2.188.4.276.61.006.013.006.019.013.032.1.239.195.49.277.735.132.39.245.779.339,1.175q.094.415.17.83c.063.4.106.811.138,1.219.006.138.013.283.019.421C139.728,160.306,139.728,160.381,139.728,160.451Z" transform="translate(-122.784 -152.374)" fill="url(#linear-gradient-6)"/>
        </g>
        <path id="Контур_146" data-name="Контур 146" d="M109.83,125.528c-.025.226-.05.44-.075.653v.006a14.921,14.921,0,0,1-3.174,7.838v-2.338a.379.379,0,0,0-.069-.214v-.006c-.019-.019-.032-.038-.051-.056a.4.4,0,0,0-.283-.113h-4.211a.545.545,0,0,1-.4-.176.369.369,0,0,1-.044-.056.52.52,0,0,1-.05-.076c-.013-.031-.025-.056-.038-.088a.359.359,0,0,1-.025-.088.722.722,0,0,1-.006-.119.7.7,0,0,1,.057-.22l5.575-11.382,1.018-2.074a.559.559,0,0,1,.094-.138.535.535,0,0,1,.528-.163l.069.019a.156.156,0,0,1,.057.025.251.251,0,0,1,.069.044A27.033,27.033,0,0,1,109.83,125.528Z" transform="translate(-101.402 -116.701)" fill="url(#linear-gradient-7)"/>
      </g>
    </g>
    <g id="Сгруппировать_77" data-name="Сгруппировать 77" transform="translate(-152.752 -2479.368)">
      <g id="Сгруппировать_76" data-name="Сгруппировать 76" transform="translate(0 0)">
        <path id="Контур_147" data-name="Контур 147" d="M165.94,180.507V158a4.805,4.805,0,0,1,4.805-4.805h0l.076,2.708a8.7,8.7,0,0,1,2.421-2.212,7.215,7.215,0,0,1,3.91-.953,8.881,8.881,0,0,1,4.767,1.3,9.3,9.3,0,0,1,3.318,3.547,10.542,10.542,0,0,1,1.221,5.111,10.429,10.429,0,0,1-1.221,5.091,9.189,9.189,0,0,1-3.318,3.509,8.98,8.98,0,0,1-4.767,1.278,8.255,8.255,0,0,1-3.738-.8,6.732,6.732,0,0,1-2.593-2.25v6.1a4.882,4.882,0,0,1-4.882,4.882Zm10.183-12.2a5.156,5.156,0,0,0,3.853-1.564A5.548,5.548,0,0,0,181.5,162.7a5.684,5.684,0,0,0-1.525-4.081,5.481,5.481,0,0,0-7.724-.019,6.23,6.23,0,0,0,0,8.124A5.106,5.106,0,0,0,176.123,168.3Z" transform="translate(-165.94 -145.418)" fill="#fff"/>
        <path id="Контур_148" data-name="Контур 148" d="M218.311,172.574a9.744,9.744,0,0,1-4.939-1.259,9.233,9.233,0,0,1-3.471-3.49,10.208,10.208,0,0,1-1.278-5.168,10.1,10.1,0,0,1,1.3-5.167,9.369,9.369,0,0,1,3.49-3.49,10.246,10.246,0,0,1,9.84,0,9.241,9.241,0,0,1,3.471,3.49,11.091,11.091,0,0,1,0,10.335,9.21,9.21,0,0,1-3.49,3.49A9.777,9.777,0,0,1,218.311,172.574Zm0-4.234a4.512,4.512,0,0,0,3.319-1.431,7.113,7.113,0,0,0,0-8.5,4.542,4.542,0,0,0-6.617,0,7.19,7.19,0,0,0,0,8.5A4.446,4.446,0,0,0,218.311,168.34Z" transform="translate(-186.165 -145.418)" fill="#fff"/>
        <path id="Контур_149" data-name="Контур 149" d="M256.036,167.96a7.354,7.354,0,0,1-4.768-1.45q-1.793-1.449-1.793-5.148v-8.238h-3.242v-.839a3.242,3.242,0,0,1,3.242-3.242h0l.089-.791a4.822,4.822,0,0,1,4.792-4.282h0v5.073h5.111a4.081,4.081,0,0,1-4.081,4.081h-1.03V161.4a2.427,2.427,0,0,0,.591,1.888,1.915,1.915,0,0,0,1.375.515h0c2.93.032,3.03,2.851,3.03,4.157h-3.318Z" transform="translate(-203.986 -141.262)" fill="#fff"/>
        <path id="Контур_150" data-name="Контур 150" d="M280.969,165.521V142.752h-7.78a3.928,3.928,0,0,1,3.928-3.928H293.67a3.929,3.929,0,0,1-3.929,3.928h-3.89V160.64a4.882,4.882,0,0,1-4.882,4.882Z" transform="translate(-216.759 -138.824)" fill="#fff"/>
        <path id="Контур_151" data-name="Контур 151" d="M317.369,172.574a9.744,9.744,0,0,1-4.939-1.259,9.234,9.234,0,0,1-3.471-3.49,10.208,10.208,0,0,1-1.278-5.168,10.1,10.1,0,0,1,1.3-5.167,9.365,9.365,0,0,1,3.49-3.49,10.245,10.245,0,0,1,9.84,0,9.239,9.239,0,0,1,3.471,3.49,11.091,11.091,0,0,1,0,10.335,9.21,9.21,0,0,1-3.49,3.49A9.777,9.777,0,0,1,317.369,172.574Zm0-4.234a4.512,4.512,0,0,0,3.318-1.431,7.113,7.113,0,0,0,0-8.5,4.542,4.542,0,0,0-6.617,0,7.188,7.188,0,0,0,0,8.5A4.447,4.447,0,0,0,317.369,168.34Z" transform="translate(-233.103 -145.418)" fill="#fff"/>
        <path id="Контур_152" data-name="Контур 152" d="M349.351,180.507V158a4.8,4.8,0,0,1,4.8-4.805h0l.076,2.708a8.7,8.7,0,0,1,2.422-2.212,7.212,7.212,0,0,1,3.909-.953,8.881,8.881,0,0,1,4.767,1.3,9.292,9.292,0,0,1,3.318,3.547,10.542,10.542,0,0,1,1.221,5.111,10.429,10.429,0,0,1-1.221,5.091,9.185,9.185,0,0,1-3.318,3.509,8.98,8.98,0,0,1-4.767,1.278,8.256,8.256,0,0,1-3.738-.8,6.735,6.735,0,0,1-2.593-2.25v6.1a4.882,4.882,0,0,1-4.881,4.882Zm10.183-12.2a5.154,5.154,0,0,0,3.852-1.564,5.545,5.545,0,0,0,1.525-4.042,5.682,5.682,0,0,0-1.525-4.081,5.481,5.481,0,0,0-7.723-.019,6.23,6.23,0,0,0,0,8.124A5.107,5.107,0,0,0,359.534,168.3Z" transform="translate(-252.847 -145.418)" fill="#fff"/>
      </g>
    </g>
  </g>
</svg>
